<mxfile host="app.diagrams.net" modified="2024-02-13T12:17:48.417Z" agent="Mozilla/5.0 (Windows NT 10.0; Win64; x64) AppleWebKit/537.36 (KHTML, like Gecko) Chrome/121.0.0.0 Safari/537.36" etag="aXWSatwag23RKO5ja-_h" version="23.1.3" type="device">
  <diagram id="Y38_nJo1P7cjdDCQHdgo" name="PÃ¡gina-1">
    <mxGraphModel dx="1114" dy="1769" grid="1" gridSize="10" guides="1" tooltips="1" connect="1" arrows="1" fold="1" page="1" pageScale="1" pageWidth="827" pageHeight="1169" math="0" shadow="0">
      <root>
        <mxCell id="0" />
        <mxCell id="1" parent="0" />
        <mxCell id="OMGasGMETHVN865JoTGu-13" style="rounded=0;orthogonalLoop=1;jettySize=auto;html=1;exitX=0.5;exitY=1;exitDx=0;exitDy=0;entryX=0.5;entryY=0;entryDx=0;entryDy=0;endArrow=none;endFill=0;" parent="1" source="OMGasGMETHVN865JoTGu-1" target="OMGasGMETHVN865JoTGu-7" edge="1">
          <mxGeometry relative="1" as="geometry" />
        </mxCell>
        <mxCell id="OMGasGMETHVN865JoTGu-14" style="rounded=0;orthogonalLoop=1;jettySize=auto;html=1;exitX=0.5;exitY=1;exitDx=0;exitDy=0;entryX=0.5;entryY=0;entryDx=0;entryDy=0;endArrow=none;endFill=0;" parent="1" source="OMGasGMETHVN865JoTGu-1" target="OMGasGMETHVN865JoTGu-3" edge="1">
          <mxGeometry relative="1" as="geometry" />
        </mxCell>
        <mxCell id="OMGasGMETHVN865JoTGu-16" style="rounded=0;orthogonalLoop=1;jettySize=auto;html=1;exitX=0.5;exitY=1;exitDx=0;exitDy=0;entryX=0.5;entryY=0;entryDx=0;entryDy=0;endArrow=none;endFill=0;" parent="1" source="OMGasGMETHVN865JoTGu-1" target="OMGasGMETHVN865JoTGu-11" edge="1">
          <mxGeometry relative="1" as="geometry" />
        </mxCell>
        <mxCell id="OMGasGMETHVN865JoTGu-19" style="rounded=0;orthogonalLoop=1;jettySize=auto;html=1;exitX=0.5;exitY=1;exitDx=0;exitDy=0;entryX=0.5;entryY=0;entryDx=0;entryDy=0;endArrow=none;endFill=0;" parent="1" source="OMGasGMETHVN865JoTGu-1" target="OMGasGMETHVN865JoTGu-9" edge="1">
          <mxGeometry relative="1" as="geometry" />
        </mxCell>
        <mxCell id="OMGasGMETHVN865JoTGu-20" style="rounded=0;orthogonalLoop=1;jettySize=auto;html=1;exitX=0.5;exitY=1;exitDx=0;exitDy=0;entryX=0.5;entryY=0;entryDx=0;entryDy=0;endArrow=none;endFill=0;" parent="1" source="OMGasGMETHVN865JoTGu-1" target="OMGasGMETHVN865JoTGu-5" edge="1">
          <mxGeometry relative="1" as="geometry" />
        </mxCell>
        <mxCell id="OMGasGMETHVN865JoTGu-1" value="" style="rounded=0;whiteSpace=wrap;html=1;" parent="1" vertex="1">
          <mxGeometry x="120" y="295" width="160" height="60" as="geometry" />
        </mxCell>
        <mxCell id="OMGasGMETHVN865JoTGu-2" value="&lt;font style=&quot;font-size: 18px;&quot;&gt;User&lt;br&gt;&lt;/font&gt;" style="text;html=1;strokeColor=none;fillColor=none;align=center;verticalAlign=middle;whiteSpace=wrap;rounded=0;" parent="1" vertex="1">
          <mxGeometry x="150" y="310" width="100" height="30" as="geometry" />
        </mxCell>
        <mxCell id="OMGasGMETHVN865JoTGu-3" value="" style="ellipse;whiteSpace=wrap;html=1;" parent="1" vertex="1">
          <mxGeometry x="30" y="385" width="110" height="50" as="geometry" />
        </mxCell>
        <mxCell id="OMGasGMETHVN865JoTGu-4" value="user_id" style="text;html=1;strokeColor=none;fillColor=none;align=center;verticalAlign=middle;whiteSpace=wrap;rounded=0;strokeWidth=2;fontSize=16;fontStyle=4" parent="1" vertex="1">
          <mxGeometry x="55" y="395" width="60" height="30" as="geometry" />
        </mxCell>
        <mxCell id="OMGasGMETHVN865JoTGu-5" value="" style="ellipse;whiteSpace=wrap;html=1;" parent="1" vertex="1">
          <mxGeometry x="70" y="455" width="110" height="50" as="geometry" />
        </mxCell>
        <mxCell id="OMGasGMETHVN865JoTGu-6" value="name" style="text;html=1;strokeColor=none;fillColor=none;align=center;verticalAlign=middle;whiteSpace=wrap;rounded=0;strokeWidth=2;fontSize=16;" parent="1" vertex="1">
          <mxGeometry x="95" y="465" width="60" height="30" as="geometry" />
        </mxCell>
        <mxCell id="OMGasGMETHVN865JoTGu-7" value="" style="ellipse;whiteSpace=wrap;html=1;" parent="1" vertex="1">
          <mxGeometry x="145" y="505" width="110" height="50" as="geometry" />
        </mxCell>
        <mxCell id="OMGasGMETHVN865JoTGu-8" value="user_name" style="text;html=1;strokeColor=none;fillColor=none;align=center;verticalAlign=middle;whiteSpace=wrap;rounded=0;strokeWidth=2;fontSize=16;" parent="1" vertex="1">
          <mxGeometry x="170" y="515" width="60" height="30" as="geometry" />
        </mxCell>
        <mxCell id="OMGasGMETHVN865JoTGu-9" value="" style="ellipse;whiteSpace=wrap;html=1;" parent="1" vertex="1">
          <mxGeometry x="225.5" y="455" width="110" height="50" as="geometry" />
        </mxCell>
        <mxCell id="OMGasGMETHVN865JoTGu-10" value="password" style="text;html=1;strokeColor=none;fillColor=none;align=center;verticalAlign=middle;whiteSpace=wrap;rounded=0;strokeWidth=2;fontSize=16;" parent="1" vertex="1">
          <mxGeometry x="250.5" y="465" width="60" height="30" as="geometry" />
        </mxCell>
        <mxCell id="OMGasGMETHVN865JoTGu-11" value="" style="ellipse;whiteSpace=wrap;html=1;" parent="1" vertex="1">
          <mxGeometry x="260" y="385" width="110" height="50" as="geometry" />
        </mxCell>
        <mxCell id="OMGasGMETHVN865JoTGu-12" value="avatar" style="text;html=1;strokeColor=none;fillColor=none;align=center;verticalAlign=middle;whiteSpace=wrap;rounded=0;strokeWidth=2;fontSize=16;" parent="1" vertex="1">
          <mxGeometry x="285" y="395" width="60" height="30" as="geometry" />
        </mxCell>
        <mxCell id="OMGasGMETHVN865JoTGu-21" style="rounded=0;orthogonalLoop=1;jettySize=auto;html=1;exitX=0.5;exitY=1;exitDx=0;exitDy=0;entryX=0.5;entryY=0;entryDx=0;entryDy=0;endArrow=none;endFill=0;" parent="1" source="OMGasGMETHVN865JoTGu-26" target="OMGasGMETHVN865JoTGu-32" edge="1">
          <mxGeometry relative="1" as="geometry" />
        </mxCell>
        <mxCell id="OMGasGMETHVN865JoTGu-22" style="rounded=0;orthogonalLoop=1;jettySize=auto;html=1;exitX=0.5;exitY=1;exitDx=0;exitDy=0;entryX=0.5;entryY=0;entryDx=0;entryDy=0;endArrow=none;endFill=0;" parent="1" source="OMGasGMETHVN865JoTGu-26" target="OMGasGMETHVN865JoTGu-28" edge="1">
          <mxGeometry relative="1" as="geometry" />
        </mxCell>
        <mxCell id="OMGasGMETHVN865JoTGu-25" style="rounded=0;orthogonalLoop=1;jettySize=auto;html=1;exitX=0.5;exitY=1;exitDx=0;exitDy=0;entryX=0.5;entryY=0;entryDx=0;entryDy=0;endArrow=none;endFill=0;" parent="1" source="OMGasGMETHVN865JoTGu-26" target="OMGasGMETHVN865JoTGu-30" edge="1">
          <mxGeometry relative="1" as="geometry" />
        </mxCell>
        <mxCell id="OMGasGMETHVN865JoTGu-26" value="" style="rounded=0;whiteSpace=wrap;html=1;" parent="1" vertex="1">
          <mxGeometry x="680" y="295" width="160" height="60" as="geometry" />
        </mxCell>
        <mxCell id="OMGasGMETHVN865JoTGu-27" value="&lt;font style=&quot;font-size: 18px;&quot;&gt;Review&lt;br&gt;&lt;/font&gt;" style="text;html=1;strokeColor=none;fillColor=none;align=center;verticalAlign=middle;whiteSpace=wrap;rounded=0;" parent="1" vertex="1">
          <mxGeometry x="710" y="310" width="100" height="30" as="geometry" />
        </mxCell>
        <mxCell id="OMGasGMETHVN865JoTGu-28" value="" style="ellipse;whiteSpace=wrap;html=1;" parent="1" vertex="1">
          <mxGeometry x="610" y="385" width="110" height="50" as="geometry" />
        </mxCell>
        <mxCell id="OMGasGMETHVN865JoTGu-29" value="review_id" style="text;html=1;strokeColor=none;fillColor=none;align=center;verticalAlign=middle;whiteSpace=wrap;rounded=0;strokeWidth=2;fontSize=16;fontStyle=4" parent="1" vertex="1">
          <mxGeometry x="635" y="395" width="60" height="30" as="geometry" />
        </mxCell>
        <mxCell id="OMGasGMETHVN865JoTGu-30" value="" style="ellipse;whiteSpace=wrap;html=1;" parent="1" vertex="1">
          <mxGeometry x="705" y="445" width="110" height="50" as="geometry" />
        </mxCell>
        <mxCell id="OMGasGMETHVN865JoTGu-31" value="review" style="text;html=1;strokeColor=none;fillColor=none;align=center;verticalAlign=middle;whiteSpace=wrap;rounded=0;strokeWidth=2;fontSize=16;" parent="1" vertex="1">
          <mxGeometry x="730" y="455" width="60" height="30" as="geometry" />
        </mxCell>
        <mxCell id="OMGasGMETHVN865JoTGu-32" value="" style="ellipse;whiteSpace=wrap;html=1;" parent="1" vertex="1">
          <mxGeometry x="800" y="385" width="110" height="50" as="geometry" />
        </mxCell>
        <mxCell id="OMGasGMETHVN865JoTGu-33" value="comment" style="text;html=1;strokeColor=none;fillColor=none;align=center;verticalAlign=middle;whiteSpace=wrap;rounded=0;strokeWidth=2;fontSize=16;" parent="1" vertex="1">
          <mxGeometry x="825" y="395" width="60" height="30" as="geometry" />
        </mxCell>
        <mxCell id="OMGasGMETHVN865JoTGu-39" style="rounded=0;orthogonalLoop=1;jettySize=auto;html=1;exitX=1;exitY=0.5;exitDx=0;exitDy=0;entryX=0;entryY=0.5;entryDx=0;entryDy=0;endArrow=none;endFill=0;" parent="1" source="OMGasGMETHVN865JoTGu-38" target="OMGasGMETHVN865JoTGu-26" edge="1">
          <mxGeometry relative="1" as="geometry" />
        </mxCell>
        <mxCell id="OMGasGMETHVN865JoTGu-40" style="rounded=0;orthogonalLoop=1;jettySize=auto;html=1;exitX=0;exitY=0.5;exitDx=0;exitDy=0;entryX=1;entryY=0.5;entryDx=0;entryDy=0;endArrow=none;endFill=0;" parent="1" source="OMGasGMETHVN865JoTGu-38" target="OMGasGMETHVN865JoTGu-1" edge="1">
          <mxGeometry relative="1" as="geometry" />
        </mxCell>
        <mxCell id="OMGasGMETHVN865JoTGu-38" value="" style="rhombus;whiteSpace=wrap;html=1;" parent="1" vertex="1">
          <mxGeometry x="420" y="290" width="110" height="70" as="geometry" />
        </mxCell>
        <mxCell id="OMGasGMETHVN865JoTGu-41" value="&lt;font style=&quot;font-size: 16px;&quot;&gt;Possui&lt;/font&gt;" style="text;html=1;strokeColor=none;fillColor=none;align=center;verticalAlign=middle;whiteSpace=wrap;rounded=0;" parent="1" vertex="1">
          <mxGeometry x="445" y="310" width="60" height="30" as="geometry" />
        </mxCell>
        <mxCell id="OMGasGMETHVN865JoTGu-61" style="rounded=0;orthogonalLoop=1;jettySize=auto;html=1;exitX=0.5;exitY=1;exitDx=0;exitDy=0;entryX=0.5;entryY=0;entryDx=0;entryDy=0;endArrow=none;endFill=0;" parent="1" source="OMGasGMETHVN865JoTGu-47" target="OMGasGMETHVN865JoTGu-59" edge="1">
          <mxGeometry relative="1" as="geometry" />
        </mxCell>
        <mxCell id="OMGasGMETHVN865JoTGu-75" style="rounded=0;orthogonalLoop=1;jettySize=auto;html=1;exitX=0.5;exitY=0;exitDx=0;exitDy=0;entryX=0.5;entryY=1;entryDx=0;entryDy=0;endArrow=none;endFill=0;" parent="1" source="OMGasGMETHVN865JoTGu-47" target="OMGasGMETHVN865JoTGu-73" edge="1">
          <mxGeometry relative="1" as="geometry" />
        </mxCell>
        <mxCell id="OMGasGMETHVN865JoTGu-47" value="" style="rounded=0;whiteSpace=wrap;html=1;" parent="1" vertex="1">
          <mxGeometry x="680" width="160" height="60" as="geometry" />
        </mxCell>
        <mxCell id="OMGasGMETHVN865JoTGu-48" value="&lt;font style=&quot;font-size: 18px;&quot;&gt;Movie&lt;br&gt;&lt;/font&gt;" style="text;html=1;strokeColor=none;fillColor=none;align=center;verticalAlign=middle;whiteSpace=wrap;rounded=0;" parent="1" vertex="1">
          <mxGeometry x="710" y="15" width="100" height="30" as="geometry" />
        </mxCell>
        <mxCell id="OMGasGMETHVN865JoTGu-62" style="rounded=0;orthogonalLoop=1;jettySize=auto;html=1;exitX=0.5;exitY=1;exitDx=0;exitDy=0;entryX=0.5;entryY=0;entryDx=0;entryDy=0;endArrow=none;endFill=0;" parent="1" source="OMGasGMETHVN865JoTGu-59" target="OMGasGMETHVN865JoTGu-26" edge="1">
          <mxGeometry relative="1" as="geometry" />
        </mxCell>
        <mxCell id="OMGasGMETHVN865JoTGu-59" value="" style="rhombus;whiteSpace=wrap;html=1;" parent="1" vertex="1">
          <mxGeometry x="705" y="140" width="110" height="70" as="geometry" />
        </mxCell>
        <mxCell id="OMGasGMETHVN865JoTGu-60" value="&lt;font style=&quot;font-size: 16px;&quot;&gt;Possui&lt;/font&gt;" style="text;html=1;strokeColor=none;fillColor=none;align=center;verticalAlign=middle;whiteSpace=wrap;rounded=0;" parent="1" vertex="1">
          <mxGeometry x="730" y="160" width="60" height="30" as="geometry" />
        </mxCell>
        <mxCell id="OMGasGMETHVN865JoTGu-80" style="rounded=0;orthogonalLoop=1;jettySize=auto;html=1;exitX=0.5;exitY=1;exitDx=0;exitDy=0;entryX=0.5;entryY=0;entryDx=0;entryDy=0;endArrow=none;endFill=0;" parent="1" source="OMGasGMETHVN865JoTGu-63" target="OMGasGMETHVN865JoTGu-47" edge="1">
          <mxGeometry relative="1" as="geometry" />
        </mxCell>
        <mxCell id="OMGasGMETHVN865JoTGu-63" value="" style="ellipse;whiteSpace=wrap;html=1;" parent="1" vertex="1">
          <mxGeometry x="530" y="-90" width="110" height="50" as="geometry" />
        </mxCell>
        <mxCell id="OMGasGMETHVN865JoTGu-64" value="movie_id" style="text;html=1;strokeColor=none;fillColor=none;align=center;verticalAlign=middle;whiteSpace=wrap;rounded=0;strokeWidth=2;fontSize=16;fontStyle=4" parent="1" vertex="1">
          <mxGeometry x="555" y="-80" width="60" height="30" as="geometry" />
        </mxCell>
        <mxCell id="OMGasGMETHVN865JoTGu-65" value="" style="ellipse;whiteSpace=wrap;html=1;" parent="1" vertex="1">
          <mxGeometry x="570" y="-160" width="110" height="50" as="geometry" />
        </mxCell>
        <mxCell id="OMGasGMETHVN865JoTGu-66" value="title" style="text;html=1;strokeColor=none;fillColor=none;align=center;verticalAlign=middle;whiteSpace=wrap;rounded=0;strokeWidth=2;fontSize=16;fontStyle=0" parent="1" vertex="1">
          <mxGeometry x="595" y="-150" width="60" height="30" as="geometry" />
        </mxCell>
        <mxCell id="OMGasGMETHVN865JoTGu-67" value="" style="ellipse;whiteSpace=wrap;html=1;" parent="1" vertex="1">
          <mxGeometry x="640" y="-220" width="110" height="50" as="geometry" />
        </mxCell>
        <mxCell id="OMGasGMETHVN865JoTGu-68" value="name" style="text;html=1;strokeColor=none;fillColor=none;align=center;verticalAlign=middle;whiteSpace=wrap;rounded=0;strokeWidth=2;fontSize=16;fontStyle=0" parent="1" vertex="1">
          <mxGeometry x="665" y="-210" width="60" height="30" as="geometry" />
        </mxCell>
        <mxCell id="OMGasGMETHVN865JoTGu-69" value="" style="ellipse;whiteSpace=wrap;html=1;" parent="1" vertex="1">
          <mxGeometry x="770" y="-220" width="110" height="50" as="geometry" />
        </mxCell>
        <mxCell id="OMGasGMETHVN865JoTGu-70" value="ano" style="text;html=1;strokeColor=none;fillColor=none;align=center;verticalAlign=middle;whiteSpace=wrap;rounded=0;strokeWidth=2;fontSize=16;fontStyle=0" parent="1" vertex="1">
          <mxGeometry x="795" y="-210" width="60" height="30" as="geometry" />
        </mxCell>
        <mxCell id="OMGasGMETHVN865JoTGu-71" value="" style="ellipse;whiteSpace=wrap;html=1;" parent="1" vertex="1">
          <mxGeometry x="855" y="-160" width="110" height="50" as="geometry" />
        </mxCell>
        <mxCell id="OMGasGMETHVN865JoTGu-72" value="synopsis" style="text;html=1;strokeColor=none;fillColor=none;align=center;verticalAlign=middle;whiteSpace=wrap;rounded=0;strokeWidth=2;fontSize=16;fontStyle=0" parent="1" vertex="1">
          <mxGeometry x="880" y="-150" width="60" height="30" as="geometry" />
        </mxCell>
        <mxCell id="OMGasGMETHVN865JoTGu-73" value="" style="ellipse;whiteSpace=wrap;html=1;" parent="1" vertex="1">
          <mxGeometry x="900" y="-90" width="110" height="50" as="geometry" />
        </mxCell>
        <mxCell id="OMGasGMETHVN865JoTGu-74" value="img_movie" style="text;html=1;strokeColor=none;fillColor=none;align=center;verticalAlign=middle;whiteSpace=wrap;rounded=0;strokeWidth=2;fontSize=16;fontStyle=0" parent="1" vertex="1">
          <mxGeometry x="925" y="-80" width="60" height="30" as="geometry" />
        </mxCell>
        <mxCell id="OMGasGMETHVN865JoTGu-76" style="rounded=0;orthogonalLoop=1;jettySize=auto;html=1;exitX=0.5;exitY=0;exitDx=0;exitDy=0;entryX=0.5;entryY=1;entryDx=0;entryDy=0;endArrow=none;endFill=0;" parent="1" source="OMGasGMETHVN865JoTGu-47" target="OMGasGMETHVN865JoTGu-71" edge="1">
          <mxGeometry relative="1" as="geometry">
            <mxPoint x="770" y="10" as="sourcePoint" />
            <mxPoint x="965" y="-30" as="targetPoint" />
          </mxGeometry>
        </mxCell>
        <mxCell id="OMGasGMETHVN865JoTGu-77" style="rounded=0;orthogonalLoop=1;jettySize=auto;html=1;exitX=0.5;exitY=0;exitDx=0;exitDy=0;entryX=0.5;entryY=1;entryDx=0;entryDy=0;endArrow=none;endFill=0;" parent="1" source="OMGasGMETHVN865JoTGu-47" target="OMGasGMETHVN865JoTGu-69" edge="1">
          <mxGeometry relative="1" as="geometry">
            <mxPoint x="780" y="20" as="sourcePoint" />
            <mxPoint x="975" y="-20" as="targetPoint" />
          </mxGeometry>
        </mxCell>
        <mxCell id="OMGasGMETHVN865JoTGu-78" style="rounded=0;orthogonalLoop=1;jettySize=auto;html=1;entryX=0.5;entryY=1;entryDx=0;entryDy=0;endArrow=none;endFill=0;exitX=0.5;exitY=0;exitDx=0;exitDy=0;" parent="1" source="OMGasGMETHVN865JoTGu-47" target="OMGasGMETHVN865JoTGu-67" edge="1">
          <mxGeometry relative="1" as="geometry">
            <mxPoint x="770" y="-10" as="sourcePoint" />
            <mxPoint x="835" y="-160" as="targetPoint" />
          </mxGeometry>
        </mxCell>
        <mxCell id="OMGasGMETHVN865JoTGu-79" style="rounded=0;orthogonalLoop=1;jettySize=auto;html=1;entryX=0.5;entryY=1;entryDx=0;entryDy=0;endArrow=none;endFill=0;" parent="1" target="OMGasGMETHVN865JoTGu-65" edge="1">
          <mxGeometry relative="1" as="geometry">
            <mxPoint x="760" as="sourcePoint" />
            <mxPoint x="705" y="-160" as="targetPoint" />
          </mxGeometry>
        </mxCell>
        <mxCell id="tV6j3YC8ffKMug3UoUdK-1" value="1" style="text;html=1;align=center;verticalAlign=middle;whiteSpace=wrap;rounded=0;" vertex="1" parent="1">
          <mxGeometry x="275.5" y="295" width="60" height="30" as="geometry" />
        </mxCell>
        <mxCell id="tV6j3YC8ffKMug3UoUdK-2" value="N" style="text;html=1;align=center;verticalAlign=middle;whiteSpace=wrap;rounded=0;" vertex="1" parent="1">
          <mxGeometry x="620" y="295" width="60" height="30" as="geometry" />
        </mxCell>
        <mxCell id="tV6j3YC8ffKMug3UoUdK-3" value="1" style="text;html=1;align=center;verticalAlign=middle;whiteSpace=wrap;rounded=0;rotation=90;" vertex="1" parent="1">
          <mxGeometry x="750" y="70" width="40" height="20" as="geometry" />
        </mxCell>
        <mxCell id="tV6j3YC8ffKMug3UoUdK-4" value="N" style="text;html=1;align=center;verticalAlign=middle;whiteSpace=wrap;rounded=0;rotation=90;" vertex="1" parent="1">
          <mxGeometry x="750" y="260" width="40" height="20" as="geometry" />
        </mxCell>
      </root>
    </mxGraphModel>
  </diagram>
</mxfile>
